<svg xmlns="http://www.w3.org/2000/svg" xmlns:xlink="http://www.w3.org/1999/xlink" width="1767" height="1767" viewBox="0 0 1767 1767"><defs><clipPath id="clip-SaveOne_Europe_Symbol"><rect width="1767" height="1767"></rect></clipPath></defs><g id="SaveOne_Europe_Symbol" data-name="SaveOne Europe Symbol" clip-path="url(#clip-SaveOne_Europe_Symbol)"><path id="Ausschluss_2" data-name="Ausschluss 2" d="M-930.483,632c-119.272,0-234.974-23.359-343.9-69.426a880.5,880.5,0,0,1-280.832-189.344A880.427,880.427,0,0,1-1744.571,92.4C-1790.648-16.526-1814-132.231-1814-251.5s23.356-234.973,69.433-343.9a880.478,880.478,0,0,1,189.354-280.832,880.661,880.661,0,0,1,280.832-189.34c108.928-46.067,224.63-69.426,343.9-69.426s234.973,23.359,343.888,69.426A880.633,880.633,0,0,1-305.77-876.233,880.418,880.418,0,0,1-116.437-595.4C-70.367-486.483-47-370.771-47-251.5S-70.367-16.519-116.437,92.4A880.368,880.368,0,0,1-305.77,373.228,880.4,880.4,0,0,1-586.6,562.572C-695.51,608.639-811.218,632-930.483,632Zm0-1457.768c-153.4,0-297.627,59.739-406.085,168.21s-168.2,252.663-168.2,406.058c0,153.415,59.732,297.631,168.2,406.095s252.676,168.213,406.085,168.213c153.388,0,297.6-59.745,406.05-168.213S-356.23-98.094-356.23-251.5c0-153.384-59.738-297.593-168.2-406.058S-777.1-825.77-930.483-825.77Z" transform="translate(1814 1135)" fill="#3fc380"></path></g></svg>